<svg width="76" height="77" viewBox="0 0 76 77" fill="none" xmlns="http://www.w3.org/2000/svg">
<path d="M51.6562 24.25H37.6841L35.606 21.7563C35.3277 21.4214 34.979 21.152 34.5847 20.9673C34.1904 20.7826 33.7602 20.687 33.3248 20.6875H24.3438C23.5567 20.6884 22.8021 21.0015 22.2456 21.5581C21.689 22.1146 21.3759 22.8692 21.375 23.6563V33.75C21.375 33.9075 21.4376 34.0585 21.5489 34.1698C21.6603 34.2812 21.8113 34.3438 21.9688 34.3438H36.7775C37.25 34.3433 37.7156 34.2303 38.1357 34.0141C38.5559 33.7979 38.9185 33.4847 39.1934 33.1004L40.7413 30.9333C40.9065 30.7029 41.1242 30.5151 41.3763 30.3854C41.6284 30.2557 41.9078 30.1879 42.1913 30.1875H54.0312C54.1887 30.1875 54.3397 30.1249 54.4511 30.0136C54.5624 29.9022 54.625 29.7512 54.625 29.5938V27.2188C54.6241 26.4317 54.311 25.6771 53.7544 25.1206C53.1979 24.564 52.4433 24.2509 51.6562 24.25Z" fill="#75B5FF"/>
<path d="M54.0312 29H42.1913C41.7188 29.0006 41.2532 29.1136 40.8331 29.3298C40.413 29.546 40.0504 29.8592 39.7753 30.2433L38.2268 32.4105C38.0618 32.641 37.8443 32.8289 37.5923 32.9585C37.3402 33.0882 37.0609 33.156 36.7775 33.1562H21.9688C21.1817 33.1572 20.4271 33.4703 19.8706 34.0268C19.314 34.5834 19.0009 35.3379 19 36.125V53.3438C19.0009 54.1308 19.314 54.8854 19.8706 55.4419C20.4271 55.9985 21.1817 56.3116 21.9688 56.3125H54.0312C54.8183 56.3116 55.5729 55.9985 56.1294 55.4419C56.686 54.8854 56.9991 54.1308 57 53.3438V31.9688C56.9991 31.1817 56.686 30.4271 56.1294 29.8706C55.5729 29.314 54.8183 29.0009 54.0312 29Z" fill="#CED1D3"/>
</svg>
