<svg width="76" height="77" viewBox="0 0 76 77" fill="none" xmlns="http://www.w3.org/2000/svg">
<path d="M47.0836 23.1486C41.6094 21.5761 36.2384 22.0479 32.5709 27.5756C26.0634 25.3545 20.1878 29.7353 20.7981 36.7301C17.3933 38.1064 15 41.4327 15 45.3423C15 50.4903 19.1444 54.6347 24.2924 54.6347H35.5806C35.5775 51.5061 35.5709 45.2287 35.5709 44.0395L32.9238 44.9989C31.0033 45.8265 29.5849 43.4082 31.2296 41.9025L36.2384 37.0348C37.3824 35.8908 38.7488 36.022 39.7616 37.0348L44.7704 41.9025C46.415 43.4082 44.9966 45.8265 43.0762 44.9989L40.429 44.0395V54.6347H51.7076C56.8556 54.6347 61 50.4903 61 45.3423C61 41.5533 58.751 38.3143 55.5131 36.8648C55.5131 28.618 51.5253 24.4247 47.0836 23.1486Z" fill="#75B5FF"/>
</svg>
