<svg width="76" height="77" viewBox="0 0 76 77" fill="none" xmlns="http://www.w3.org/2000/svg">
<path d="M51.4106 27.4785H45.8475C45.1582 27.4785 44.6167 26.9628 44.6167 26.3066V20.8926L42.1552 18.1035H26.1552C24.112 18.1035 22.4629 19.6738 22.4629 21.6191V54.5879C22.4629 56.5331 24.112 58.1035 26.1552 58.1035H50.7706C52.8137 58.1035 54.4629 56.5331 54.4629 54.5879V29.8223L51.4106 27.4785Z" fill="#CED1D3"/>
<path d="M54.0082 28.467L53.907 28.3913L44.1347 18.6591C43.8609 18.2954 43.5498 18.1045 43.0715 18.1045H41.8057V26.929C41.8057 29.0216 43.5018 30.7109 45.6031 30.7109H54.4639V29.4503C54.4639 28.9116 54.2564 28.7142 54.0082 28.467Z" fill="#75B5FF"/>
<path d="M14.7988 22.7969H17.7988" stroke="#75B5FF" stroke-width="2" stroke-linecap="round"/>
<path d="M27.999 49.8652H47.999" stroke="white" stroke-width="2" stroke-linecap="round"/>
<path d="M27.999 42.8652H47.999" stroke="white" stroke-width="2" stroke-linecap="round"/>
<path d="M27.999 35.8652H40.8428" stroke="white" stroke-width="2" stroke-linecap="round"/>
<path d="M27.2441 9.50977L27.2441 12.5098" stroke="#75B5FF" stroke-width="2" stroke-linecap="round"/>
<path d="M17.7988 13.2793L19.9201 15.4006" stroke="#75B5FF" stroke-width="2" stroke-linecap="round"/>
</svg>
