<svg width="141" height="104" viewBox="0 0 141 104" fill="none" xmlns="http://www.w3.org/2000/svg">
<rect x="16.0303" y="16" width="72" height="72" rx="36" fill="#B2C6DC"/>
<path d="M101.03 52L85.0303 42V62L101.03 52Z" fill="#B2C6DC"/>
<path d="M45.4775 62.336C41.8535 62.336 39.4535 59.168 39.4535 53.048C39.4535 46.904 41.8535 43.904 45.4775 43.904C49.0775 43.904 51.4775 46.928 51.4775 53.048C51.4775 59.168 49.0775 62.336 45.4775 62.336ZM45.4775 59.576C46.9895 59.576 48.1415 58.04 48.1415 53.048C48.1415 48.08 46.9895 46.64 45.4775 46.64C43.9415 46.64 42.7895 48.08 42.7895 53.048C42.7895 58.04 43.9415 59.576 45.4775 59.576ZM53.4983 62V59.144H57.3143V47.912H54.0983V45.728C55.8743 45.392 57.0983 44.936 58.2263 44.24H60.8423V59.144H64.1783V62H53.4983Z" fill="white"/>
<circle cx="127.03" cy="52" r="6" fill="#B2C6DC"/>
</svg>
