<svg width="141" height="104" viewBox="0 0 141 104" fill="none" xmlns="http://www.w3.org/2000/svg">
<rect x="16.0303" y="16" width="72" height="72" rx="36" fill="#B2C6DC"/>
<path d="M101.03 52L85.0303 42V62L101.03 52Z" fill="#B2C6DC"/>
<path d="M45.4775 62.336C41.8535 62.336 39.4535 59.168 39.4535 53.048C39.4535 46.904 41.8535 43.904 45.4775 43.904C49.0775 43.904 51.4775 46.928 51.4775 53.048C51.4775 59.168 49.0775 62.336 45.4775 62.336ZM45.4775 59.576C46.9895 59.576 48.1415 58.04 48.1415 53.048C48.1415 48.08 46.9895 46.64 45.4775 46.64C43.9415 46.64 42.7895 48.08 42.7895 53.048C42.7895 58.04 43.9415 59.576 45.4775 59.576ZM52.5623 62V59.96C57.3863 55.64 60.2423 52.304 60.2423 49.568C60.2423 47.768 59.2583 46.688 57.5783 46.688C56.2823 46.688 55.2023 47.528 54.3143 48.512L52.3943 46.592C54.0263 44.864 55.6103 43.904 58.0343 43.904C61.3943 43.904 63.6263 46.064 63.6263 49.376C63.6263 52.592 60.9623 56.048 57.7223 59.216C58.6103 59.12 59.7863 59.024 60.6023 59.024H64.4663V62H52.5623Z" fill="white"/>
<circle cx="127.03" cy="52" r="6" fill="#B2C6DC"/>
</svg>
