<svg width="45" height="45" viewBox="0 0 45 45" fill="none" xmlns="http://www.w3.org/2000/svg">
<rect opacity="0.16" x="0.708984" y="0.958496" width="44" height="44" rx="8" fill="#646FFE"/>
<path fill-rule="evenodd" clip-rule="evenodd" d="M14.5102 12.8183C13.6504 13.6781 13.6504 15.0619 13.6504 17.8296V28.0874C13.6504 30.8551 13.6504 32.2389 14.5102 33.0987C15.37 33.9585 16.7538 33.9585 19.5215 33.9585H25.8969C28.6646 33.9585 30.0484 33.9585 30.9082 33.0987C31.768 32.2389 31.768 30.8551 31.768 28.0874V17.8296C31.768 15.0619 31.768 13.6781 30.9082 12.8183C30.0484 11.9585 28.6646 11.9585 25.8969 11.9585H19.5215C16.7538 11.9585 15.37 11.9585 14.5102 12.8183ZM18.8263 17.2253C18.1636 17.2253 17.6263 17.7626 17.6263 18.4253C17.6263 19.088 18.1636 19.6253 18.8263 19.6253H26.591C27.2538 19.6253 27.791 19.088 27.791 18.4253C27.791 17.7626 27.2538 17.2253 26.591 17.2253H18.8263ZM18.8263 22.4018C18.1636 22.4018 17.6263 22.939 17.6263 23.6018C17.6263 24.2645 18.1636 24.8018 18.8263 24.8018H26.591C27.2538 24.8018 27.791 24.2645 27.791 23.6018C27.791 22.939 27.2538 22.4018 26.591 22.4018H18.8263ZM18.8263 27.5782C18.1636 27.5782 17.6263 28.1155 17.6263 28.7782C17.6263 29.441 18.1636 29.9782 18.8263 29.9782H24.0028C24.6655 29.9782 25.2028 29.441 25.2028 28.7782C25.2028 28.1155 24.6655 27.5782 24.0028 27.5782H18.8263Z" fill="#646FFE"/>
</svg>
