<svg width="45" height="45" viewBox="0 0 45 45" fill="none" xmlns="http://www.w3.org/2000/svg">
<rect opacity="0.16" x="0.708984" y="0.958496" width="44" height="44" rx="8" fill="#5180F9"/>
<path fill-rule="evenodd" clip-rule="evenodd" d="M34.3822 30.417C34.3822 31.9704 33.0763 33.2297 31.4655 33.2297H13.9655C12.3547 33.2297 11.0488 31.9704 11.0488 30.417V18.8845C11.0488 17.3311 12.3547 16.0718 13.9655 16.0718H16.8822L18.9238 12.6964H26.5072L28.5488 16.0718H31.4655C33.0763 16.0718 34.3822 17.3311 34.3822 18.8845V30.417ZM22.7243 28.9043C25.3016 28.9043 27.391 26.8149 27.391 24.2376C27.391 21.6603 25.3016 19.5709 22.7243 19.5709C20.147 19.5709 18.0576 21.6603 18.0576 24.2376C18.0576 26.8149 20.147 28.9043 22.7243 28.9043Z" fill="#5180F9"/>
</svg>
