<svg width="45" height="45" viewBox="0 0 45 45" fill="none" xmlns="http://www.w3.org/2000/svg">
<rect opacity="0.16" x="0.708984" y="0.958496" width="44" height="44" rx="8" fill="#6ABDEC"/>
<path fill-rule="evenodd" clip-rule="evenodd" d="M31.0642 15.5608L24.255 12.6426C23.2692 12.2201 22.1532 12.2201 21.1673 12.6426L14.3582 15.5608C13.8778 15.7666 13.5664 16.2389 13.5664 16.7615V23.6239C13.5664 26.1553 14.7889 28.5309 16.8488 30.0023L21.1925 33.1049C22.101 33.7538 23.3214 33.7538 24.2298 33.1049L28.5735 30.0023C30.6334 28.5309 31.856 26.1553 31.856 23.6239V16.7615C31.856 16.2389 31.5445 15.7666 31.0642 15.5608ZM27.4799 20.4971C27.855 20.0282 27.7789 19.344 27.3101 18.9689C26.8412 18.5938 26.157 18.6698 25.7819 19.1387L21.3151 24.7221L19.5613 22.9683C19.1367 22.5437 18.4483 22.5437 18.0237 22.9683C17.5991 23.3929 17.5991 24.0813 18.0237 24.5059L20.207 26.6892C20.8943 27.3765 22.0265 27.3138 22.6337 26.5548L27.4799 20.4971Z" fill="#6ABDEC"/>
</svg>
