<svg width="40" height="40" viewBox="0 0 40 40" fill="none" xmlns="http://www.w3.org/2000/svg">
<g opacity="0.5">
<path fill-rule="evenodd" clip-rule="evenodd" d="M28.1303 13.1334C29.0274 13.3757 29.7325 14.0826 29.9709 14.9787C30.4045 16.6049 30.4045 20 30.4045 20C30.4045 20 30.4045 23.3951 29.9709 25.0213C29.7292 25.9207 29.0241 26.6276 28.1303 26.8666C26.5083 27.3014 20.0001 27.3014 20.0001 27.3014C20.0001 27.3014 13.4953 27.3014 11.8699 26.8666C10.9728 26.6243 10.2677 25.9174 10.0294 25.0213C9.5957 23.3951 9.5957 20 9.5957 20C9.5957 20 9.5957 16.6049 10.0294 14.9787C10.271 14.0793 10.9761 13.3724 11.8699 13.1334C13.4953 12.6987 20.0001 12.6987 20.0001 12.6987C20.0001 12.6987 26.5083 12.6987 28.1303 13.1334ZM23.25 20L18.25 23.1297V16.8704L23.25 20Z" fill="white"/>
</g>
</svg>
