<svg width="40" height="40" viewBox="0 0 40 40" fill="none" xmlns="http://www.w3.org/2000/svg">
<g opacity="0.5">
<path d="M31.1969 24.3479C31.1969 25.6887 30.0989 26.7895 28.7527 26.7895H21.8489C21.8489 26.7895 20.4137 30.4153 19.9281 30.4153C19.4452 30.4153 18.1178 26.7895 18.1178 26.7895H11.2384C9.89489 26.7895 8.79688 25.6887 8.79688 24.3479V14.4415C8.79688 13.098 9.89489 12 11.2384 12H28.7527C30.0989 12 31.1969 13.098 31.1969 14.4415V24.3479Z" fill="white"/>
<path d="M14.0448 17.6421C13.4864 17.6583 13.0143 17.7635 12.6582 18.0656H12.642V15.875H11.3281V21.6079H12.642V21.33H12.6582C12.9414 21.5458 13.3245 21.705 13.8479 21.705C14.4279 21.705 14.9594 21.5404 15.3074 21.1519C15.6554 20.7608 15.8254 20.3911 15.8254 19.7437C15.8254 19.1475 15.6096 18.6133 15.3128 18.2707C15.016 17.9226 14.5223 17.6259 14.0448 17.6421ZM14.1878 20.4073C14.0071 20.5881 13.7885 20.6771 13.5376 20.6771C13.2867 20.6771 13.0709 20.5881 12.8956 20.4073C12.7175 20.2239 12.6312 20.0081 12.6312 19.7491C12.6312 19.4928 12.7202 19.2716 12.8956 19.0908C13.0709 18.91 13.2867 18.821 13.5376 18.821C13.7912 18.821 14.0098 18.91 14.1878 19.0908C14.3686 19.2716 14.4576 19.4901 14.4576 19.7491C14.4576 20.0081 14.3686 20.2239 14.1878 20.4073Z" fill="#1C2D4D"/>
<path d="M22.8978 18.2401C22.6847 18.0405 22.4392 17.8894 22.1613 17.7842C21.8861 17.679 21.592 17.625 21.2845 17.625C20.985 17.625 20.6964 17.679 20.4239 17.7842C20.1487 17.8894 19.9032 18.0432 19.6874 18.2401C19.4662 18.4505 19.2989 18.6825 19.1856 18.9361C19.0723 19.1897 19.0156 19.4595 19.0156 19.7455C19.0156 20.0288 19.0723 20.3012 19.1856 20.5521C19.3016 20.8084 19.4662 21.0377 19.6874 21.2482C19.9059 21.4478 20.1487 21.6016 20.4239 21.7068C20.6964 21.812 20.985 21.866 21.2845 21.866C21.592 21.866 21.8861 21.812 22.1613 21.7068C22.4365 21.6016 22.682 21.4478 22.8978 21.2482C23.1136 21.0458 23.2755 20.8192 23.3915 20.5629C23.5048 20.3066 23.5615 20.0315 23.5615 19.7455C23.5615 19.4568 23.5048 19.1843 23.3915 18.928C23.2782 18.6718 23.1136 18.4424 22.8978 18.2401ZM21.9374 20.3957C21.7566 20.5737 21.5408 20.6654 21.2872 20.6654C21.039 20.6654 20.8232 20.5737 20.6478 20.3957C20.4697 20.2122 20.3807 19.9964 20.3807 19.7374C20.3807 19.4811 20.4697 19.2599 20.6478 19.0818C20.8259 18.8984 21.039 18.812 21.2872 18.812C21.5435 18.812 21.7566 18.9011 21.9374 19.0818C22.1181 19.2599 22.2098 19.4811 22.2098 19.7374C22.2098 19.9937 22.1181 20.2122 21.9374 20.3957Z" fill="#1C2D4D"/>
<path d="M16.1406 15.75V17.1718C16.1406 17.1718 16.7881 17.2797 16.7881 18.0971C16.7881 18.6313 16.7881 21.6447 16.7881 21.6447H18.1316C18.1316 21.6447 18.1316 18.7958 18.1316 18.1403C18.021 15.866 16.1406 15.75 16.1406 15.75Z" fill="#1C2D4D"/>
<path d="M27.3536 17.9753H27.3374C27.0191 17.6866 26.6953 17.5625 26.1801 17.5625C25.6027 17.5625 25.0982 17.754 24.7475 18.1641C24.3941 18.5769 24.2188 19.1299 24.2188 19.8314C24.2188 20.4546 24.3752 20.9537 24.6936 21.3233C25.0119 21.6929 25.4813 21.8952 26.0182 21.8952C26.6009 21.8952 27.038 21.7441 27.3374 21.3287H27.3536V21.5984C27.3536 22.2918 26.6198 22.6452 26.0856 22.5885V23.6299C26.725 23.7216 27.4885 23.6866 28.02 23.1794C28.4678 22.7531 28.6594 22.138 28.6594 21.1317V17.6623H27.3536V17.9753ZM27.1027 20.4033C26.922 20.5841 26.7061 20.6731 26.4525 20.6731C26.2016 20.6731 25.9885 20.5841 25.8105 20.4033C25.6324 20.2199 25.5434 20.004 25.5434 19.745C25.5434 19.4887 25.6324 19.2675 25.8105 19.0868C25.9885 18.906 26.2016 18.817 26.4525 18.817C26.7061 18.817 26.922 18.906 27.1027 19.0868C27.2835 19.2675 27.3725 19.486 27.3725 19.745C27.3725 20.004 27.2835 20.2199 27.1027 20.4033Z" fill="#1C2D4D"/>
</g>
</svg>
