<svg width="40" height="40" viewBox="0 0 40 40" fill="none" xmlns="http://www.w3.org/2000/svg">
<g opacity="0.5">
<path d="M16.782 20C16.782 18.2234 18.2227 16.7828 20.0004 16.7828C21.7781 16.7828 23.2195 18.2234 23.2195 20C23.2195 21.7766 21.7781 23.2172 20.0004 23.2172C18.2227 23.2172 16.782 21.7766 16.782 20ZM15.0418 20C15.0418 22.737 17.2618 24.9556 20.0004 24.9556C22.739 24.9556 24.959 22.737 24.959 20C24.959 17.263 22.739 15.0444 20.0004 15.0444C17.2618 15.0444 15.0418 17.263 15.0418 20ZM23.9965 14.8479C23.9964 15.077 24.0642 15.3009 24.1915 15.4914C24.3187 15.6819 24.4997 15.8304 24.7114 15.9181C24.9231 16.0059 25.1561 16.0289 25.3809 15.9843C25.6057 15.9397 25.8122 15.8295 25.9743 15.6676C26.1364 15.5057 26.2469 15.2994 26.2917 15.0748C26.3365 14.8501 26.3136 14.6173 26.226 14.4056C26.1384 14.194 25.9899 14.013 25.7994 13.8857C25.6089 13.7584 25.3849 13.6904 25.1557 13.6903H25.1553C24.848 13.6904 24.5535 13.8124 24.3362 14.0295C24.1189 14.2465 23.9967 14.5409 23.9965 14.8479V14.8479ZM16.0991 27.8556C15.1576 27.8127 14.6459 27.656 14.3058 27.5236C13.855 27.3482 13.5333 27.1392 13.1951 26.8017C12.8569 26.4641 12.6475 26.143 12.4728 25.6924C12.3402 25.3527 12.1834 24.8411 12.1406 23.9002C12.0938 22.8829 12.0844 22.5773 12.0844 20.0001C12.0844 17.4228 12.0945 17.1181 12.1406 16.1C12.1835 15.1591 12.3414 14.6485 12.4728 14.3078C12.6483 13.8572 12.8573 13.5357 13.1951 13.1977C13.5328 12.8597 13.8542 12.6505 14.3058 12.4758C14.6457 12.3433 15.1576 12.1866 16.0991 12.1438C17.117 12.097 17.4228 12.0877 20.0004 12.0877C22.578 12.0877 22.8841 12.0978 23.9028 12.1438C24.8443 12.1867 25.3552 12.3446 25.6961 12.4758C26.147 12.6505 26.4686 12.8601 26.8068 13.1977C27.1451 13.5352 27.3536 13.8572 27.5292 14.3078C27.6617 14.6475 27.8186 15.1591 27.8614 16.1C27.9082 17.1181 27.9175 17.4228 27.9175 20.0001C27.9175 22.5773 27.9082 22.882 27.8614 23.9002C27.8185 24.8411 27.6609 25.3525 27.5292 25.6924C27.3536 26.143 27.1446 26.4644 26.8068 26.8017C26.4691 27.1389 26.147 27.3482 25.6961 27.5236C25.3562 27.6561 24.8443 27.8128 23.9028 27.8556C22.8849 27.9023 22.5792 27.9117 20.0004 27.9117C17.4216 27.9117 17.1167 27.9023 16.0991 27.8556V27.8556ZM16.0191 10.4076C14.9911 10.4544 14.2887 10.6173 13.6752 10.8559C13.0399 11.1022 12.502 11.4327 11.9646 11.969C11.4271 12.5053 11.0973 13.0437 10.8508 13.6786C10.612 14.2921 10.449 14.9938 10.4022 16.0211C10.3546 17.0502 10.3438 17.3791 10.3438 20C10.3438 22.6209 10.3546 22.9498 10.4022 23.9788C10.449 25.0063 10.612 25.7079 10.8508 26.3214C11.0973 26.9559 11.4272 27.4949 11.9646 28.031C12.502 28.567 13.0399 28.8971 13.6752 29.1441C14.2898 29.3827 14.9911 29.5456 16.0191 29.5924C17.0493 29.6392 17.378 29.6508 20.0004 29.6508C22.6228 29.6508 22.952 29.64 23.9816 29.5924C25.0097 29.5456 25.7117 29.3827 26.3256 29.1441C26.9605 28.8971 27.4987 28.5672 28.0362 28.031C28.5736 27.4947 28.9028 26.9559 29.15 26.3214C29.3887 25.7079 29.5525 25.0062 29.5985 23.9788C29.6454 22.9491 29.6562 22.6209 29.6562 20C29.6562 17.3791 29.6454 17.0502 29.5985 16.0211C29.5517 14.9937 29.3887 14.2917 29.15 13.6786C28.9028 13.0441 28.5728 12.5062 28.0362 11.969C27.4996 11.4319 26.9605 11.1022 26.3263 10.8559C25.7117 10.6173 25.0096 10.4536 23.9824 10.4076C22.9528 10.3608 22.6236 10.3492 20.0012 10.3492C17.3787 10.3492 17.0493 10.36 16.0191 10.4076Z" fill="white"/>
<path d="M16.782 20C16.782 18.2234 18.2227 16.7828 20.0004 16.7828C21.7781 16.7828 23.2195 18.2234 23.2195 20C23.2195 21.7766 21.7781 23.2172 20.0004 23.2172C18.2227 23.2172 16.782 21.7766 16.782 20ZM15.0418 20C15.0418 22.737 17.2618 24.9556 20.0004 24.9556C22.739 24.9556 24.959 22.737 24.959 20C24.959 17.263 22.739 15.0444 20.0004 15.0444C17.2618 15.0444 15.0418 17.263 15.0418 20ZM23.9965 14.8479C23.9964 15.077 24.0642 15.3009 24.1915 15.4914C24.3187 15.6819 24.4997 15.8304 24.7114 15.9181C24.9231 16.0059 25.1561 16.0289 25.3809 15.9843C25.6057 15.9397 25.8122 15.8295 25.9743 15.6676C26.1364 15.5057 26.2469 15.2994 26.2917 15.0748C26.3365 14.8501 26.3136 14.6173 26.226 14.4056C26.1384 14.194 25.9899 14.013 25.7994 13.8857C25.6089 13.7584 25.3849 13.6904 25.1557 13.6903H25.1553C24.848 13.6904 24.5535 13.8124 24.3362 14.0295C24.1189 14.2465 23.9967 14.5409 23.9965 14.8479V14.8479ZM16.0991 27.8556C15.1576 27.8127 14.6459 27.656 14.3058 27.5236C13.855 27.3482 13.5333 27.1392 13.1951 26.8017C12.8569 26.4641 12.6475 26.143 12.4728 25.6924C12.3402 25.3527 12.1834 24.8411 12.1406 23.9002C12.0938 22.8829 12.0844 22.5773 12.0844 20.0001C12.0844 17.4228 12.0945 17.1181 12.1406 16.1C12.1835 15.1591 12.3414 14.6485 12.4728 14.3078C12.6483 13.8572 12.8573 13.5357 13.1951 13.1977C13.5328 12.8597 13.8542 12.6505 14.3058 12.4758C14.6457 12.3433 15.1576 12.1866 16.0991 12.1438C17.117 12.097 17.4228 12.0877 20.0004 12.0877C22.578 12.0877 22.8841 12.0978 23.9028 12.1438C24.8443 12.1867 25.3552 12.3446 25.6961 12.4758C26.147 12.6505 26.4686 12.8601 26.8068 13.1977C27.1451 13.5352 27.3536 13.8572 27.5292 14.3078C27.6617 14.6475 27.8186 15.1591 27.8614 16.1C27.9082 17.1181 27.9175 17.4228 27.9175 20.0001C27.9175 22.5773 27.9082 22.882 27.8614 23.9002C27.8185 24.8411 27.6609 25.3525 27.5292 25.6924C27.3536 26.143 27.1446 26.4644 26.8068 26.8017C26.4691 27.1389 26.147 27.3482 25.6961 27.5236C25.3562 27.6561 24.8443 27.8128 23.9028 27.8556C22.8849 27.9023 22.5792 27.9117 20.0004 27.9117C17.4216 27.9117 17.1167 27.9023 16.0991 27.8556V27.8556ZM16.0191 10.4076C14.9911 10.4544 14.2887 10.6173 13.6752 10.8559C13.0399 11.1022 12.502 11.4327 11.9646 11.969C11.4271 12.5053 11.0973 13.0437 10.8508 13.6786C10.612 14.2921 10.449 14.9938 10.4022 16.0211C10.3546 17.0502 10.3438 17.3791 10.3438 20C10.3438 22.6209 10.3546 22.9498 10.4022 23.9788C10.449 25.0063 10.612 25.7079 10.8508 26.3214C11.0973 26.9559 11.4272 27.4949 11.9646 28.031C12.502 28.567 13.0399 28.8971 13.6752 29.1441C14.2898 29.3827 14.9911 29.5456 16.0191 29.5924C17.0493 29.6392 17.378 29.6508 20.0004 29.6508C22.6228 29.6508 22.952 29.64 23.9816 29.5924C25.0097 29.5456 25.7117 29.3827 26.3256 29.1441C26.9605 28.8971 27.4987 28.5672 28.0362 28.031C28.5736 27.4947 28.9028 26.9559 29.15 26.3214C29.3887 25.7079 29.5525 25.0062 29.5985 23.9788C29.6454 22.9491 29.6562 22.6209 29.6562 20C29.6562 17.3791 29.6454 17.0502 29.5985 16.0211C29.5517 14.9937 29.3887 14.2917 29.15 13.6786C28.9028 13.0441 28.5728 12.5062 28.0362 11.969C27.4996 11.4319 26.9605 11.1022 26.3263 10.8559C25.7117 10.6173 25.0096 10.4536 23.9824 10.4076C22.9528 10.3608 22.6236 10.3492 20.0012 10.3492C17.3787 10.3492 17.0493 10.36 16.0191 10.4076Z" fill="white"/>
</g>
</svg>
