<svg width="45" height="45" viewBox="0 0 45 45" fill="none" xmlns="http://www.w3.org/2000/svg">
<rect opacity="0.16" x="0.708984" y="0.958496" width="44" height="44" rx="8" fill="#535FD1"/>
<path fill-rule="evenodd" clip-rule="evenodd" d="M12.5877 12.8372C11.709 13.7159 11.709 15.1301 11.709 17.9585V27.9585C11.709 30.7869 11.709 32.2011 12.5877 33.0798C13.4663 33.9585 14.8806 33.9585 17.709 33.9585H27.709C30.5374 33.9585 31.9516 33.9585 32.8303 33.0798C33.709 32.2011 33.709 30.7869 33.709 27.9585V17.9585C33.709 15.1301 33.709 13.7159 32.8303 12.8372C31.9516 11.9585 30.5374 11.9585 27.709 11.9585H17.709C14.8806 11.9585 13.4663 11.9585 12.5877 12.8372ZM30.1901 25.7148C30.6924 25.4852 30.9135 24.8919 30.6839 24.3896C30.4543 23.8873 29.861 23.6662 29.3587 23.8958L27.1605 24.9006L26.0234 22.9771C25.8816 22.7372 25.6461 22.5673 25.3737 22.5085C25.1014 22.4496 24.8168 22.5071 24.5886 22.667L22.7588 23.9495L22.3621 24.2096L22.2169 19.294C22.1535 17.1491 19.2159 16.5961 18.3769 18.5712L15.4002 25.5794C15.1842 26.0878 15.4213 26.6749 15.9296 26.8908C16.438 27.1067 17.0251 26.8697 17.241 26.3613L20.2178 19.3531L20.363 24.2686C20.4092 25.8319 22.151 26.7397 23.4588 25.8821L23.8684 25.6135C23.8722 25.611 23.8759 25.6085 23.8797 25.606C23.8845 25.6028 23.8893 25.5995 23.894 25.5961L24.8516 24.925L25.4388 25.9184C25.9595 26.7993 27.0612 27.145 27.9919 26.7196L30.1901 25.7148Z" fill="#535FD1"/>
</svg>
