<svg width="45" height="45" viewBox="0 0 45 45" fill="none" xmlns="http://www.w3.org/2000/svg">
<rect opacity="0.16" x="0.708984" y="0.958496" width="44" height="44" rx="8" fill="#3DBF81"/>
<path d="M26.7044 26.0131H34.4417C34.5149 26.0131 34.5824 25.974 34.6191 25.9108C34.6556 25.8475 34.6558 25.7695 34.6193 25.706L26.7653 12.0422C26.7288 11.9787 26.6611 11.9395 26.5877 11.9395H18.8504C18.7772 11.9395 18.7097 11.9785 18.673 12.0417C18.6365 12.1051 18.6363 12.1831 18.6728 12.2465L26.5267 25.9103C26.5633 25.9739 26.6311 26.0131 26.7044 26.0131Z" fill="#3DBF81"/>
<path d="M21.9774 20.5754L17.992 13.7442C17.9553 13.6812 17.8879 13.6426 17.8151 13.6426C17.8146 13.6426 17.8141 13.6426 17.8136 13.6426C17.7402 13.6431 17.6727 13.6828 17.6366 13.7467L10.2384 26.8366C10.203 26.8992 10.2031 26.9758 10.2385 27.0384L14.107 33.8696C14.1433 33.9336 14.2112 33.9734 14.2847 33.9736C14.285 33.9736 14.2852 33.9736 14.2854 33.9736C14.3588 33.9736 14.4266 33.9344 14.4631 33.8707L21.9781 20.7808C22.0146 20.7171 22.0143 20.6388 21.9774 20.5754Z" fill="#3DBF81"/>
<path d="M35.001 26.7363H20.0879C20.0142 26.7363 19.9461 26.776 19.9097 26.8402L16.0355 33.6714C15.9995 33.7349 15.9999 33.8126 16.0367 33.8757C16.0733 33.9387 16.1409 33.9775 16.2138 33.9775H31.1268C31.2006 33.9775 31.2686 33.9378 31.3051 33.8736L35.1793 27.0424C35.2152 26.979 35.2149 26.9012 35.1781 26.8381C35.1415 26.7751 35.074 26.7363 35.001 26.7363Z" fill="#3DBF81"/>
</svg>
