<svg width="45" height="45" viewBox="0 0 45 45" fill="none" xmlns="http://www.w3.org/2000/svg">
<rect opacity="0.16" x="0.708984" y="0.958496" width="44" height="44" rx="8" fill="#5156EB"/>
<path fill-rule="evenodd" clip-rule="evenodd" d="M22.7091 11.4585C16.3576 11.4585 11.2129 16.7344 11.2129 23.2478C11.2129 28.4585 14.5086 32.8732 19.0746 34.4364C19.6463 34.545 19.858 34.1831 19.858 33.8647C19.858 33.5824 19.8509 32.8442 19.8439 31.86C16.6469 32.5692 15.9694 30.2823 15.9694 30.2823C15.4472 28.9217 14.6921 28.5599 14.6921 28.5599C13.6476 27.8289 14.7697 27.8434 14.7697 27.8434C15.92 27.9302 16.534 29.0592 16.534 29.0592C17.5573 30.8613 19.2228 30.3402 19.8791 30.0362C19.985 29.2763 20.2814 28.7553 20.606 28.4585C18.0513 28.1618 15.3696 27.1486 15.3696 22.6326C15.3696 21.3444 15.8142 20.295 16.5552 19.47C16.4352 19.1733 16.04 17.9719 16.6681 16.3508C16.6681 16.3508 17.635 16.0324 19.8297 17.5594C20.7472 17.2989 21.7281 17.1686 22.7091 17.1614C23.683 17.1614 24.671 17.2989 25.5884 17.5594C27.7832 16.0324 28.7501 16.3508 28.7501 16.3508C29.3781 17.9719 28.9829 19.1733 28.863 19.47C29.5969 20.295 30.0415 21.3444 30.0415 22.6326C30.0415 27.1631 27.3527 28.1546 24.791 28.4513C25.2003 28.8132 25.5743 29.5369 25.5743 30.6369C25.5743 32.2146 25.5602 33.4811 25.5602 33.8719C25.5602 34.1903 25.7649 34.5522 26.3506 34.4364C30.9166 32.8732 34.2053 28.4585 34.2053 23.255C34.2053 16.7344 29.0606 11.4585 22.7091 11.4585Z" fill="#5156EB" stroke="#5156EB" stroke-width="1.2"/>
</svg>
