<svg width="45" height="45" viewBox="0 0 45 45" fill="none" xmlns="http://www.w3.org/2000/svg">
<rect opacity="0.16" x="0.708984" y="0.958496" width="44" height="44" rx="8" fill="#6077B1"/>
<path d="M12.5635 32.8068C12.5635 28.8168 15.897 25.5822 22.7089 25.5822C29.5209 25.5822 32.8544 28.8168 32.8544 32.8068C32.8544 33.4416 32.3913 33.9562 31.82 33.9562H13.5979C13.0266 33.9562 12.5635 33.4416 12.5635 32.8068Z" fill="#6077B1"/>
<path d="M26.5135 17.4698C26.5135 19.571 24.8101 21.2744 22.7089 21.2744C20.6077 21.2744 18.9044 19.571 18.9044 17.4698C18.9044 15.3686 20.6077 13.6653 22.7089 13.6653C24.8101 13.6653 26.5135 15.3686 26.5135 17.4698Z" fill="#6077B1"/>
<circle cx="22.7084" cy="17.5419" r="5.58339" fill="#6077B1"/>
</svg>
