<svg width="45" height="45" viewBox="0 0 45 45" fill="none" xmlns="http://www.w3.org/2000/svg">
<rect opacity="0.16" x="0.708984" y="0.958496" width="44" height="44" rx="8" fill="#5D8BE6"/>
<path fill-rule="evenodd" clip-rule="evenodd" d="M22.71 34.1089C28.2679 34.1089 32.7734 29.6033 32.7734 24.0454C32.7734 18.4875 28.2679 13.9819 22.71 13.9819C17.1521 13.9819 12.6465 18.4875 12.6465 24.0454C12.6465 29.6033 17.1521 34.1089 22.71 34.1089ZM23.8271 20.6929C23.8271 20.0753 23.3265 19.5747 22.709 19.5747C22.0914 19.5747 21.5908 20.0753 21.5908 20.6929V24.0474C21.5908 24.6649 22.0914 25.1655 22.709 25.1655C23.3265 25.1655 23.8271 24.6649 23.8271 24.0474V20.6929Z" fill="#5D8BE5"/>
<path d="M15.2012 33.1436L16.8784 31.4663" stroke="#5D8BE5" stroke-width="2.23633" stroke-linecap="round"/>
<path d="M28.8574 31.4687L30.5347 33.146" stroke="#5D8BE5" stroke-width="2.23633" stroke-linecap="round"/>
<path d="M14.1009 14.375C14.1518 14.2083 14.3424 13.9769 14.6432 13.7168C14.944 13.4566 15.3381 13.1822 15.7645 12.936C16.1908 12.6899 16.6255 12.4858 17.0012 12.3554C17.3769 12.225 17.6726 12.1756 17.8424 12.2148" stroke="#5D8BE5" stroke-width="2.23633" stroke-linecap="round"/>
<path d="M30.8014 14.375C30.7505 14.2083 30.5599 13.9769 30.2591 13.7168C29.9583 13.4566 29.5642 13.1822 29.1379 12.936C28.7116 12.6899 28.2768 12.4858 27.9011 12.3554C27.5254 12.225 27.2298 12.1756 27.06 12.2148" stroke="#5D8BE5" stroke-width="2.23633" stroke-linecap="round"/>
</svg>
