<svg width="40" height="40" viewBox="0 0 40 40" fill="none" xmlns="http://www.w3.org/2000/svg">
<g opacity="0.5">
<path d="M30.3988 13.1016L30.4036 13.0968L28.3328 11.1901C27.8839 10.7074 27.2467 10.3984 26.5323 10.3984H12.7509C11.3945 10.3984 10.2891 11.5038 10.2891 12.8603V28.0656C10.2891 28.4904 10.3663 28.8042 10.5256 29.0262C10.5835 29.1035 10.6463 29.1711 10.7187 29.2241L12.6978 31.0488C12.7268 31.0826 12.7605 31.1115 12.7943 31.1405L12.8136 31.155V31.1502C12.8474 31.1743 12.8764 31.1984 12.9102 31.2177C13.026 31.2757 13.1564 31.3095 13.3012 31.3095C13.668 31.3095 13.9915 31.0971 14.0494 31.0536L16.3616 28.6883C16.8539 28.0946 18.1717 27.9643 18.64 27.9643H28.6272C29.9837 27.9643 31.0891 26.8589 31.0891 25.5025V14.7911C31.0891 14.1298 30.8236 13.5409 30.3988 13.1016ZM28.1783 13.1499V23.5716C28.1783 24.4791 27.4398 25.2128 26.5371 25.2128H16.5498C16.3374 25.2128 14.4645 25.2418 13.6632 26.212L13.1998 26.6851L12.3792 27.5298L11.462 28.4711C11.3945 28.5146 11.2834 28.5628 11.211 28.5628H11.2014C11.2014 28.5628 11.1097 28.4759 11.1097 28.0656V12.8603C11.1097 11.9528 11.8482 11.219 12.7509 11.219H26.5371C27.2563 11.219 27.8597 11.6873 28.0818 12.3293C28.1397 12.4982 28.1783 12.672 28.1783 12.8603V13.1499V13.1499Z" fill="white"/>
<path d="M15.7026 15.5469C15.0269 15.5469 14.4766 16.0972 14.4766 16.773V19.3506C14.4766 20.0264 15.0269 20.5767 15.7026 20.5767C16.3784 20.5767 16.9287 20.0264 16.9287 19.3506V16.773C16.9287 16.0972 16.3784 15.5469 15.7026 15.5469Z" fill="white"/>
<path d="M23.3511 15.5469C22.6753 15.5469 22.125 16.0972 22.125 16.773V19.3506C22.125 20.0264 22.6753 20.5767 23.3511 20.5767C24.0269 20.5767 24.5772 20.0264 24.5772 19.3506V16.773C24.5772 16.0972 24.0317 15.5469 23.3511 15.5469Z" fill="white"/>
</g>
</svg>
