<svg width="41" height="40" viewBox="0 0 41 40" fill="none" xmlns="http://www.w3.org/2000/svg">
<circle cx="20.9092" cy="20" r="20" fill="#1761DE"/>
<path d="M19.9717 22.2539H22.2959L23.5068 23.8359C24.2979 22.9961 24.7764 21.6777 24.7764 19.9297C24.7764 16.707 23.1553 14.9492 20.8506 14.9492C18.5459 14.9492 16.9248 16.707 16.9248 19.9297C16.9248 23.1523 18.5459 24.9102 20.8506 24.9102C21.2217 24.9102 21.5732 24.8613 21.9053 24.7734L19.9717 22.2539ZM27.335 19.9297C27.335 22.498 26.4561 24.4707 25.0498 25.7109L27.0029 28.2305H24.5225L23.3506 26.7266C22.5889 27.0391 21.749 27.1953 20.8506 27.1953C17.1396 27.1953 14.3662 24.4805 14.3662 19.9297C14.3662 15.3594 17.1396 12.6641 20.8506 12.6641C24.5615 12.6641 27.335 15.3594 27.335 19.9297Z" fill="white"/>
</svg>
