<svg width="69" height="68" viewBox="0 0 69 68" fill="none" xmlns="http://www.w3.org/2000/svg">
<path d="M34.9092 68C53.6869 68 68.9092 52.7777 68.9092 34C68.9092 15.2223 53.6869 0 34.9092 0C16.1315 0 0.90918 15.2223 0.90918 34C0.90918 52.7777 16.1315 68 34.9092 68Z" fill="#F7CB72"/>
<path d="M48.1469 45.6136C48.8218 45.6136 49.4066 45.3911 49.9031 44.9516L41.4035 36.452C41.1994 36.5973 41.0027 36.7407 40.8151 36.875C40.1788 37.3439 39.6621 37.7099 39.2667 37.971C38.8713 38.234 38.3436 38.5006 37.6852 38.7746C37.0269 39.0486 36.4127 39.1847 35.8426 39.1847H35.8095C35.2394 39.1847 34.6271 39.0486 33.9669 38.7746C33.3086 38.5006 32.7808 38.234 32.3854 37.971C31.99 37.7099 31.4733 37.3439 30.837 36.875C30.6605 36.7444 30.4637 36.6028 30.2504 36.4502L21.749 44.9516C22.2455 45.3911 22.8303 45.6136 23.5052 45.6136H48.1469Z" fill="white"/>
<path d="M22.8622 31.101C22.226 30.6762 21.6614 30.1907 21.1704 29.6445V42.5759L28.6622 35.0841C27.1635 34.0377 25.2326 32.7119 22.8622 31.101Z" fill="white"/>
<path d="M48.8064 31.101C46.5261 32.6438 44.5879 33.9734 42.9917 35.0878L50.4798 42.5759V29.6445C49.9999 30.1815 49.4427 30.6651 48.8064 31.101Z" fill="white"/>
<path d="M48.1462 22.3876H23.5045C22.6457 22.3876 21.9837 22.6781 21.5203 23.2574C21.0569 23.8385 20.8252 24.563 20.8252 25.4347C20.8252 26.1372 21.1323 26.8985 21.7465 27.7205C22.3607 28.5407 23.0135 29.1843 23.705 29.6532C24.0838 29.9217 25.2276 30.7161 27.1364 32.0383C28.1662 32.7518 29.0618 33.3752 29.8323 33.9122C30.4888 34.3701 31.0552 34.7654 31.5223 35.0946C31.5756 35.1314 31.6602 35.1921 31.7724 35.273C31.8937 35.3594 32.0464 35.4698 32.2339 35.6058C32.5962 35.8688 32.8978 36.0803 33.1387 36.2421C33.3778 36.4039 33.6683 36.586 34.0085 36.7864C34.3487 36.9869 34.6705 37.1377 34.9721 37.2388C35.2737 37.3381 35.5532 37.3896 35.8088 37.3896H35.8419C36.0994 37.3896 36.3771 37.3399 36.6786 37.2388C36.9802 37.1377 37.3002 36.9869 37.6404 36.7864C37.9806 36.586 38.2712 36.4039 38.5121 36.2421C38.7511 36.0803 39.0527 35.8688 39.4168 35.6058C39.6044 35.4698 39.757 35.3594 39.8784 35.273C39.9906 35.1921 40.0752 35.1332 40.1285 35.0946C40.4926 34.8408 41.059 34.4473 41.8221 33.9177C43.2105 32.9541 45.2536 31.5344 47.9623 29.6532C48.777 29.085 49.4574 28.3972 50.0054 27.5936C50.5516 26.79 50.8256 25.9478 50.8256 25.0651C50.8256 24.3277 50.5608 23.6987 50.0311 23.1728C49.5015 22.6487 48.8726 22.3857 48.1481 22.3857L48.1462 22.3876Z" fill="white"/>
</svg>
