<svg width="69" height="68" viewBox="0 0 69 68" fill="none" xmlns="http://www.w3.org/2000/svg">
<path d="M34.8398 68C53.6175 68 68.8398 52.7777 68.8398 34C68.8398 15.2223 53.6175 0 34.8398 0C16.0622 0 0.839844 15.2223 0.839844 34C0.839844 52.7777 16.0622 68 34.8398 68Z" fill="#568CF0"/>
<path d="M48.24 42.1458L43.9058 37.8116C43.0433 36.9524 41.6124 36.9788 40.7201 37.8711L38.5373 40.0555C38.3985 39.9795 38.2564 39.9002 38.106 39.8159C36.728 39.0525 34.8393 38.0049 32.8532 36.0172C30.8621 34.0261 29.8128 32.1358 29.0478 30.756C28.9668 30.609 28.8892 30.4685 28.8132 30.3347L30.2788 28.8707L30.9992 28.1486C31.8932 27.253 31.918 25.8254 31.0571 24.9629L26.7229 20.6287C25.862 19.7678 24.4311 19.7943 23.5372 20.6882L22.3161 21.9175L22.3491 21.9506C21.9393 22.4727 21.5973 23.0759 21.3428 23.7252C21.1082 24.3449 20.9611 24.9348 20.895 25.5263C20.3233 30.2702 22.4912 34.6077 28.3753 40.4901C36.5082 48.623 43.0631 48.0084 43.3457 47.9786C43.962 47.9043 44.5519 47.7572 45.1517 47.5242C45.7961 47.2714 46.3993 46.931 46.9214 46.5212L46.9478 46.5444L48.1855 45.3332C49.0794 44.4376 49.1042 43.0083 48.2433 42.1458H48.24Z" fill="white"/>
</svg>
